<svg xmlns="http://www.w3.org/2000/svg" xml:space="preserve" width="870" height="870" viewBox="0 0 870 1051.25"><path d="M761.25 36.25c39.875 0 72.5 32.625 72.5 72.5v652.5c0 39.875-32.625 72.5-72.5 72.5h-652.5c-39.875 0-72.5-32.625-72.5-72.5v-652.5c0-39.875 32.625-72.5 72.5-72.5zm0-36.25h-652.5C48.575 0 0 48.575 0 108.75v652.5C0 821.425 48.575 870 108.75 870h652.5C821.425 870 870 821.425 870 761.25v-652.5C870 48.575 821.425 0 761.25 0" fill="#d3d3d3"/><g fill="#d3d3d3"><path d="M301.66 111.72h-20.6V99.36c0-5.768 4.532-10.3 10.3-10.3s10.3 4.532 10.3 10.3z"/><circle cx="3" cy="3" r="2.5" transform="translate(303 87)scale(4.12)"/><circle cx="3" cy="3" r="2.5" transform="translate(423 87)scale(4.12)"/><path d="M493.66 111.72h-20.6V99.36c0-5.768 4.532-10.3 10.3-10.3s10.3 4.532 10.3 10.3zm24 0h-20.6V99.36c0-5.768 4.532-10.3 10.3-10.3s10.3 4.532 10.3 10.3z"/><circle cx="3" cy="3" r="2.5" transform="translate(519 87)scale(4.12)"/><circle cx="3" cy="3" r="2.5" transform="translate(567 87)scale(4.12)"/><path d="M281.06 111h20.6v24.72h-20.6zm68.6 24.72h-20.6v-12.36c0-5.768 4.532-10.3 10.3-10.3s10.3 4.532 10.3 10.3zm24 0h-20.6v-12.36c0-5.768 4.532-10.3 10.3-10.3s10.3 4.532 10.3 10.3z"/><circle cx="3" cy="3" r="2.5" transform="translate(375 111)scale(4.12)"/><path d="M469.66 135.72h-20.6v-12.36c0-5.768 4.532-10.3 10.3-10.3s10.3 4.532 10.3 10.3zm3.4-24.72h20.6v24.72h-20.6zm34.3 22.66c-5.768 0-10.3-4.532-10.3-10.3V111h20.6v12.36c0 5.768-4.532 10.3-10.3 10.3m58.3 2.06h-20.6v-12.36c0-5.768 4.532-10.3 10.3-10.3s10.3 4.532 10.3 10.3zm-274.3 21.94c-5.768 0-10.3-4.532-10.3-10.3V135h20.6v12.36c0 5.768-4.532 10.3-10.3 10.3m48 0c-5.768 0-10.3-4.532-10.3-10.3V135h20.6v12.36c0 5.768-4.532 10.3-10.3 10.3m13.7-22.66h20.6v24.72h-20.6z"/><circle cx="3" cy="3" r="2.5" transform="translate(399 135)scale(4.12)"/><circle cx="3" cy="3" r="2.5" transform="translate(423 135)scale(4.12)"/><path d="M459.36 157.66c-5.768 0-10.3-4.532-10.3-10.3V135h20.6v12.36c0 5.768-4.532 10.3-10.3 10.3m24 0c-5.768 0-10.3-4.532-10.3-10.3V135h20.6v12.36c0 5.768-4.532 10.3-10.3 10.3"/><circle cx="3" cy="3" r="2.5" transform="translate(519 135)scale(4.12)"/><path d="M545.06 135h20.6v24.72h-20.6z"/><circle cx="3" cy="3" r="2.5" transform="translate(567 135)scale(4.12)"/><circle cx="3" cy="3" r="2.5" transform="translate(303 159)scale(4.12)"/><path d="M363.36 181.66c-5.768 0-10.3-4.532-10.3-10.3V159h20.6v12.36c0 5.768-4.532 10.3-10.3 10.3m34.3 2.06h-20.6v-12.36c0-5.768 4.532-10.3 10.3-10.3s10.3 4.532 10.3 10.3z"/><circle cx="3" cy="3" r="2.5" transform="translate(495 159)scale(4.12)"/><path d="M545.06 159h20.6v24.72h-20.6z"/><circle cx="3" cy="3" r="2.5" transform="translate(327 183)scale(4.12)"/><path d="M387.36 205.66c-5.768 0-10.3-4.532-10.3-10.3V183h20.6v12.36c0 5.768-4.532 10.3-10.3 10.3m82.3 2.06h-20.6v-12.36c0-5.768 4.532-10.3 10.3-10.3s10.3 4.532 10.3 10.3z"/><circle cx="3" cy="3" r="2.5" transform="translate(471 183)scale(4.12)"/><path d="M555.36 205.66c-5.768 0-10.3-4.532-10.3-10.3V183h20.6v12.36c0 5.768-4.532 10.3-10.3 10.3m-253.7 26.06h-20.6v-12.36c0-5.768 4.532-10.3 10.3-10.3s10.3 4.532 10.3 10.3z"/><circle cx="3" cy="3" r="2.5" transform="translate(303 207)scale(4.12)"/><circle cx="3" cy="3" r="2.5" transform="translate(351 207)scale(4.12)"/><circle cx="3" cy="3" r="2.5" transform="translate(399 207)scale(4.12)"/><path d="M459.36 229.66c-5.768 0-10.3-4.532-10.3-10.3V207h20.6v12.36c0 5.768-4.532 10.3-10.3 10.3m82.3 2.06h-20.6v-12.36c0-5.768 4.532-10.3 10.3-10.3s10.3 4.532 10.3 10.3zm-260.6-.72h20.6v24.72h-20.6z"/><circle cx="3" cy="3" r="2.5" transform="translate(327 231)scale(4.12)"/><path d="M397.66 255.72h-20.6v-12.36c0-5.768 4.532-10.3 10.3-10.3s10.3 4.532 10.3 10.3z"/><circle cx="3" cy="3" r="2.5" transform="translate(423 231)scale(4.12)"/><path d="M493.66 255.72h-20.6v-12.36c0-5.768 4.532-10.3 10.3-10.3s10.3 4.532 10.3 10.3zm37.7-2.06c-5.768 0-10.3-4.532-10.3-10.3V231h20.6v12.36c0 5.768-4.532 10.3-10.3 10.3m58.3 2.06h-20.6v-12.36c0-5.768 4.532-10.3 10.3-10.3s10.3 4.532 10.3 10.3zm-308.6-.72h20.6v24.72h-20.6zm44.6 24.72h-20.6v-12.36c0-5.768 4.532-10.3 10.3-10.3s10.3 4.532 10.3 10.3zm51.4-24.72h20.6v24.72h-20.6z"/><path d="M473.06 255h20.6v24.72h-20.6zm96 0h20.6v24.72h-20.6zm-411.4 48.72h-20.6v-12.36c0-5.768 4.532-10.3 10.3-10.3s10.3 4.532 10.3 10.3z"/><circle cx="3" cy="3" r="2.5" transform="translate(159 279)scale(4.12)"/><path d="M205.66 303.72h-20.6v-12.36c0-5.768 4.532-10.3 10.3-10.3s10.3 4.532 10.3 10.3z"/><circle cx="3" cy="3" r="2.5" transform="translate(231 279)scale(4.12)"/><path d="M291.36 301.66c-5.768 0-10.3-4.532-10.3-10.3V279h20.6v12.36c0 5.768-4.532 10.3-10.3 10.3m13.7-22.66h20.6v24.72h-20.6z"/><circle cx="3" cy="3" r="2.5" transform="translate(351 279)scale(4.12)"/><path d="M387.36 301.66c-5.768 0-10.3-4.532-10.3-10.3V279h20.6v12.36c0 5.768-4.532 10.3-10.3 10.3m34.3 2.06h-20.6v-12.36c0-5.768 4.532-10.3 10.3-10.3s10.3 4.532 10.3 10.3z"/><circle cx="3" cy="3" r="2.5" transform="translate(423 279)scale(4.12)"/><path d="M473.06 279h20.6v24.72h-20.6z"/><circle cx="3" cy="3" r="2.5" transform="translate(519 279)scale(4.12)"/><circle cx="3" cy="3" r="2.5" transform="translate(543 279)scale(4.12)"/><path d="M579.36 301.66c-5.768 0-10.3-4.532-10.3-10.3V279h20.6v12.36c0 5.768-4.532 10.3-10.3 10.3m34.3 2.06h-20.6v-12.36c0-5.768 4.532-10.3 10.3-10.3s10.3 4.532 10.3 10.3z"/><circle cx="3" cy="3" r="2.5" transform="translate(615 279)scale(4.12)"/><circle cx="3" cy="3" r="2.5" transform="translate(639 279)scale(4.12)"/><path d="M733.66 303.72h-20.6v-12.36c0-5.768 4.532-10.3 10.3-10.3s10.3 4.532 10.3 10.3z"/><circle cx="3" cy="3" r="2.5" transform="translate(735 279)scale(4.12)"/><path d="M781.66 303.72h-20.6v-12.36c0-5.768 4.532-10.3 10.3-10.3s10.3 4.532 10.3 10.3zm-648 24h-20.6v-12.36c0-5.768 4.532-10.3 10.3-10.3s10.3 4.532 10.3 10.3zm3.4-24.72h20.6v24.72h-20.6zm58.3 22.66c-5.768 0-10.3-4.532-10.3-10.3V303h20.6v12.36c0 5.768-4.532 10.3-10.3 10.3"/><circle cx="3" cy="3" r="2.5" transform="translate(255 303)scale(4.12)"/><path d="M315.36 325.66c-5.768 0-10.3-4.532-10.3-10.3V303h20.6v12.36c0 5.768-4.532 10.3-10.3 10.3"/><circle cx="3" cy="3" r="2.5" transform="translate(327 303)scale(4.12)"/><path d="M401.06 303h20.6v24.72h-20.6zm72 0h20.6v24.72h-20.6zm120 0h20.6v24.72h-20.6z"/><circle cx="3" cy="3" r="2.5" transform="translate(663 303)scale(4.12)"/><circle cx="3" cy="3" r="2.5" transform="translate(687 303)scale(4.12)"/><path d="M723.36 325.66c-5.768 0-10.3-4.532-10.3-10.3V303h20.6v12.36c0 5.768-4.532 10.3-10.3 10.3m48 0c-5.768 0-10.3-4.532-10.3-10.3V303h20.6v12.36c0 5.768-4.532 10.3-10.3 10.3"/><circle cx="3" cy="3" r="2.5" transform="translate(87 327)scale(4.12)"/><path d="M123.36 349.66c-5.768 0-10.3-4.532-10.3-10.3V327h20.6v12.36c0 5.768-4.532 10.3-10.3 10.3m24 0c-5.768 0-10.3-4.532-10.3-10.3V327h20.6v12.36c0 5.768-4.532 10.3-10.3 10.3m34.3 2.06h-20.6v-12.36c0-5.768 4.532-10.3 10.3-10.3s10.3 4.532 10.3 10.3z"/><circle cx="3" cy="3" r="2.5" transform="translate(207 327)scale(4.12)"/><circle cx="3" cy="3" r="2.5" transform="translate(231 327)scale(4.12)"/><circle cx="3" cy="3" r="2.5" transform="translate(279 327)scale(4.12)"/><path d="M373.66 351.72h-20.6v-12.36c0-5.768 4.532-10.3 10.3-10.3s10.3 4.532 10.3 10.3zm24 0h-20.6v-12.36c0-5.768 4.532-10.3 10.3-10.3s10.3 4.532 10.3 10.3zm3.4-24.72h20.6v24.72h-20.6z"/><circle cx="3" cy="3" r="2.5" transform="translate(423 327)scale(4.12)"/><path d="M473.06 327h20.6v24.72h-20.6zm68.6 24.72h-20.6v-12.36c0-5.768 4.532-10.3 10.3-10.3s10.3 4.532 10.3 10.3z"/><circle cx="3" cy="3" r="2.5" transform="translate(567 327)scale(4.12)"/><path d="M593.06 327h20.6v24.72h-20.6zm44.6 24.72h-20.6v-12.36c0-5.768 4.532-10.3 10.3-10.3s10.3 4.532 10.3 10.3zm-476.6-.72h20.6v24.72h-20.6zm116.6 24.72h-20.6v-12.36c0-5.768 4.532-10.3 10.3-10.3s10.3 4.532 10.3 10.3zm48 0h-20.6v-12.36c0-5.768 4.532-10.3 10.3-10.3s10.3 4.532 10.3 10.3z"/><circle cx="3" cy="3" r="2.5" transform="translate(327 351)scale(4.12)"/><path d="M363.36 373.66c-5.768 0-10.3-4.532-10.3-10.3V351h20.6v12.36c0 5.768-4.532 10.3-10.3 10.3m13.7-22.66h20.6v24.72h-20.6zm34.3 22.66c-5.768 0-10.3-4.532-10.3-10.3V351h20.6v12.36c0 5.768-4.532 10.3-10.3 10.3m72 0c-5.768 0-10.3-4.532-10.3-10.3V351h20.6v12.36c0 5.768-4.532 10.3-10.3 10.3m34.3 2.06h-20.6v-12.36c0-5.768 4.532-10.3 10.3-10.3s10.3 4.532 10.3 10.3zm13.7-2.06c-5.768 0-10.3-4.532-10.3-10.3V351h20.6v12.36c0 5.768-4.532 10.3-10.3 10.3m61.7-22.66h20.6v24.72h-20.6zm34.3 22.66c-5.768 0-10.3-4.532-10.3-10.3V351h20.6v12.36c0 5.768-4.532 10.3-10.3 10.3"/><circle cx="3" cy="3" r="2.5" transform="translate(663 351)scale(4.12)"/><path d="M709.66 375.72h-20.6v-12.36c0-5.768 4.532-10.3 10.3-10.3s10.3 4.532 10.3 10.3zm48 0h-20.6v-12.36c0-5.768 4.532-10.3 10.3-10.3s10.3 4.532 10.3 10.3zm-624 24h-20.6v-12.36c0-5.768 4.532-10.3 10.3-10.3s10.3 4.532 10.3 10.3zm37.7-2.06c-5.768 0-10.3-4.532-10.3-10.3V375h20.6v12.36c0 5.768-4.532 10.3-10.3 10.3"/><circle cx="3" cy="3" r="2.5" transform="translate(183 375)scale(4.12)"/><circle cx="3" cy="3" r="2.5" transform="translate(207 375)scale(4.12)"/><circle cx="3" cy="3" r="2.5" transform="translate(231 375)scale(4.12)"/><path d="M267.36 397.66c-5.768 0-10.3-4.532-10.3-10.3V375h20.6v12.36c0 5.768-4.532 10.3-10.3 10.3m48 0c-5.768 0-10.3-4.532-10.3-10.3V375h20.6v12.36c0 5.768-4.532 10.3-10.3 10.3m72 0c-5.768 0-10.3-4.532-10.3-10.3V375h20.6v12.36c0 5.768-4.532 10.3-10.3 10.3m58.3 2.06h-20.6v-12.36c0-5.768 4.532-10.3 10.3-10.3s10.3 4.532 10.3 10.3z"/><circle cx="3" cy="3" r="2.5" transform="translate(447 375)scale(4.12)"/><path d="M507.36 397.66c-5.768 0-10.3-4.532-10.3-10.3V375h20.6v12.36c0 5.768-4.532 10.3-10.3 10.3m85.7-22.66h20.6v24.72h-20.6z"/><circle cx="3" cy="3" r="2.5" transform="translate(639 375)scale(4.12)"/><path d="M689.06 375h20.6v24.72h-20.6z"/><circle cx="3" cy="3" r="2.5" transform="translate(711 375)scale(4.12)"/><path d="M737.06 375h20.6v24.72h-20.6zm44.6 24.72h-20.6v-12.36c0-5.768 4.532-10.3 10.3-10.3s10.3 4.532 10.3 10.3zm-658.3 21.94c-5.768 0-10.3-4.532-10.3-10.3V399h20.6v12.36c0 5.768-4.532 10.3-10.3 10.3"/><circle cx="3" cy="3" r="2.5" transform="translate(135 399)scale(4.12)"/><path d="M349.66 423.72h-20.6v-12.36c0-5.768 4.532-10.3 10.3-10.3s10.3 4.532 10.3 10.3zm24 0h-20.6v-12.36c0-5.768 4.532-10.3 10.3-10.3s10.3 4.532 10.3 10.3zm51.4-24.72h20.6v24.72h-20.6z"/><circle cx="3" cy="3" r="2.5" transform="translate(543 399)scale(4.12)"/><circle cx="3" cy="3" r="2.5" transform="translate(567 399)scale(4.12)"/><path d="M603.36 421.66c-5.768 0-10.3-4.532-10.3-10.3V399h20.6v12.36c0 5.768-4.532 10.3-10.3 10.3m34.3 2.06h-20.6v-12.36c0-5.768 4.532-10.3 10.3-10.3s10.3 4.532 10.3 10.3z"/><circle cx="3" cy="3" r="2.5" transform="translate(663 399)scale(4.12)"/><path d="M699.36 421.66c-5.768 0-10.3-4.532-10.3-10.3V399h20.6v12.36c0 5.768-4.532 10.3-10.3 10.3m48 0c-5.768 0-10.3-4.532-10.3-10.3V399h20.6v12.36c0 5.768-4.532 10.3-10.3 10.3m24 0c-5.768 0-10.3-4.532-10.3-10.3V399h20.6v12.36c0 5.768-4.532 10.3-10.3 10.3m-661.7 26.06h-20.6v-12.36c0-5.768 4.532-10.3 10.3-10.3s10.3 4.532 10.3 10.3zm96 0h-20.6v-12.36c0-5.768 4.532-10.3 10.3-10.3s10.3 4.532 10.3 10.3z"/><circle cx="3" cy="3" r="2.5" transform="translate(231 423)scale(4.12)"/><path d="M277.66 447.72h-20.6v-12.36c0-5.768 4.532-10.3 10.3-10.3s10.3 4.532 10.3 10.3z"/><circle cx="3" cy="3" r="2.5" transform="translate(279 423)scale(4.12)"/><path d="M329.06 423h20.6v24.72h-20.6zm24 0h20.6v24.72h-20.6zm72 0h20.6v24.72h-20.6zm44.6 24.72h-20.6v-12.36c0-5.768 4.532-10.3 10.3-10.3s10.3 4.532 10.3 10.3zm48 0h-20.6v-12.36c0-5.768 4.532-10.3 10.3-10.3s10.3 4.532 10.3 10.3zm24 0h-20.6v-12.36c0-5.768 4.532-10.3 10.3-10.3s10.3 4.532 10.3 10.3zm75.4-24.72h20.6v24.72h-20.6z"/><circle cx="3" cy="3" r="2.5" transform="translate(639 423)scale(4.12)"/><path d="M89.06 447h20.6v24.72h-20.6zm92.6 24.72h-20.6v-12.36c0-5.768 4.532-10.3 10.3-10.3s10.3 4.532 10.3 10.3zm3.4-24.72h20.6v24.72h-20.6zm44.6 24.72h-20.6v-12.36c0-5.768 4.532-10.3 10.3-10.3s10.3 4.532 10.3 10.3zm27.4-24.72h20.6v24.72h-20.6zm72 0h20.6v24.72h-20.6zm34.3 22.66c-5.768 0-10.3-4.532-10.3-10.3V447h20.6v12.36c0 5.768-4.532 10.3-10.3 10.3m34.3 2.06h-20.6v-12.36c0-5.768 4.532-10.3 10.3-10.3s10.3 4.532 10.3 10.3z"/><circle cx="3" cy="3" r="2.5" transform="translate(399 447)scale(4.12)"/><path d="M435.36 469.66c-5.768 0-10.3-4.532-10.3-10.3V447h20.6v12.36c0 5.768-4.532 10.3-10.3 10.3m13.7-22.66h20.6v24.72h-20.6zm58.3 22.66c-5.768 0-10.3-4.532-10.3-10.3V447h20.6v12.36c0 5.768-4.532 10.3-10.3 10.3m13.7-22.66h20.6v24.72h-20.6z"/><circle cx="3" cy="3" r="2.5" transform="translate(567 447)scale(4.12)"/><circle cx="3" cy="3" r="2.5" transform="translate(591 447)scale(4.12)"/><path d="M617.06 447h20.6v24.72h-20.6z"/><circle cx="3" cy="3" r="2.5" transform="translate(663 447)scale(4.12)"/><path d="M709.66 471.72h-20.6v-12.36c0-5.768 4.532-10.3 10.3-10.3s10.3 4.532 10.3 10.3zM89.06 471h20.6v24.72h-20.6z"/><circle cx="3" cy="3" r="2.5" transform="translate(111 471)scale(4.12)"/><path d="M161.06 471h20.6v24.72h-20.6zm24 0h20.6v24.72h-20.6zm34.3 22.66c-5.768 0-10.3-4.532-10.3-10.3V471h20.6v12.36c0 5.768-4.532 10.3-10.3 10.3"/><circle cx="3" cy="3" r="2.5" transform="translate(231 471)scale(4.12)"/><path d="M257.06 471h20.6v24.72h-20.6zm44.6 24.72h-20.6v-12.36c0-5.768 4.532-10.3 10.3-10.3s10.3 4.532 10.3 10.3zm24 0h-20.6v-12.36c0-5.768 4.532-10.3 10.3-10.3s10.3 4.532 10.3 10.3zm13.7-2.06c-5.768 0-10.3-4.532-10.3-10.3V471h20.6v12.36c0 5.768-4.532 10.3-10.3 10.3m48 0c-5.768 0-10.3-4.532-10.3-10.3V471h20.6v12.36c0 5.768-4.532 10.3-10.3 10.3m61.7-22.66h20.6v24.72h-20.6zm82.3 22.66c-5.768 0-10.3-4.532-10.3-10.3V471h20.6v12.36c0 5.768-4.532 10.3-10.3 10.3m96 0c-5.768 0-10.3-4.532-10.3-10.3V471h20.6v12.36c0 5.768-4.532 10.3-10.3 10.3m34.3 2.06h-20.6v-12.36c0-5.768 4.532-10.3 10.3-10.3s10.3 4.532 10.3 10.3zm37.7-2.06c-5.768 0-10.3-4.532-10.3-10.3V471h20.6v12.36c0 5.768-4.532 10.3-10.3 10.3"/><circle cx="3" cy="3" r="2.5" transform="translate(711 471)scale(4.12)"/><path d="M757.66 495.72h-20.6v-12.36c0-5.768 4.532-10.3 10.3-10.3s10.3 4.532 10.3 10.3zm24 0h-20.6v-12.36c0-5.768 4.532-10.3 10.3-10.3s10.3 4.532 10.3 10.3zM89.06 495h20.6v24.72h-20.6z"/><circle cx="3" cy="3" r="2.5" transform="translate(135 495)scale(4.12)"/><path d="M161.06 495h20.6v24.72h-20.6zm34.3 22.66c-5.768 0-10.3-4.532-10.3-10.3V495h20.6v12.36c0 5.768-4.532 10.3-10.3 10.3m72 0c-5.768 0-10.3-4.532-10.3-10.3V495h20.6v12.36c0 5.768-4.532 10.3-10.3 10.3m24 0c-5.768 0-10.3-4.532-10.3-10.3V495h20.6v12.36c0 5.768-4.532 10.3-10.3 10.3m13.7-22.66h20.6v24.72h-20.6z"/><circle cx="3" cy="3" r="2.5" transform="translate(351 495)scale(4.12)"/><path d="M449.06 495h20.6v24.72h-20.6z"/><circle cx="3" cy="3" r="2.5" transform="translate(567 495)scale(4.12)"/><circle cx="3" cy="3" r="2.5" transform="translate(591 495)scale(4.12)"/><path d="M641.06 495h20.6v24.72h-20.6zm44.6 24.72h-20.6v-12.36c0-5.768 4.532-10.3 10.3-10.3s10.3 4.532 10.3 10.3zm61.7-2.06c-5.768 0-10.3-4.532-10.3-10.3V495h20.6v12.36c0 5.768-4.532 10.3-10.3 10.3m24 0c-5.768 0-10.3-4.532-10.3-10.3V495h20.6v12.36c0 5.768-4.532 10.3-10.3 10.3M89.06 519h20.6v24.72h-20.6zm82.3 22.66c-5.768 0-10.3-4.532-10.3-10.3V519h20.6v12.36c0 5.768-4.532 10.3-10.3 10.3"/><circle cx="3" cy="3" r="2.5" transform="translate(231 519)scale(4.12)"/><path d="M305.06 519h20.6v24.72h-20.6zm44.6 24.72h-20.6v-12.36c0-5.768 4.532-10.3 10.3-10.3s10.3 4.532 10.3 10.3zm48 0h-20.6v-12.36c0-5.768 4.532-10.3 10.3-10.3s10.3 4.532 10.3 10.3z"/><circle cx="3" cy="3" r="2.5" transform="translate(399 519)scale(4.12)"/><path d="M445.66 543.72h-20.6v-12.36c0-5.768 4.532-10.3 10.3-10.3s10.3 4.532 10.3 10.3zm13.7-2.06c-5.768 0-10.3-4.532-10.3-10.3V519h20.6v12.36c0 5.768-4.532 10.3-10.3 10.3"/><circle cx="3" cy="3" r="2.5" transform="translate(471 519)scale(4.12)"/><path d="M517.66 543.72h-20.6v-12.36c0-5.768 4.532-10.3 10.3-10.3s10.3 4.532 10.3 10.3zm48 0h-20.6v-12.36c0-5.768 4.532-10.3 10.3-10.3s10.3 4.532 10.3 10.3zm72 0h-20.6v-12.36c0-5.768 4.532-10.3 10.3-10.3s10.3 4.532 10.3 10.3zm13.7-2.06c-5.768 0-10.3-4.532-10.3-10.3V519h20.6v12.36c0 5.768-4.532 10.3-10.3 10.3m24 0c-5.768 0-10.3-4.532-10.3-10.3V519h20.6v12.36c0 5.768-4.532 10.3-10.3 10.3"/><circle cx="3" cy="3" r="2.5" transform="translate(687 519)scale(4.12)"/><circle cx="3" cy="3" r="2.5" transform="translate(711 519)scale(4.12)"/><path d="M89.06 543h20.6v24.72h-20.6z"/><circle cx="3" cy="3" r="2.5" transform="translate(183 543)scale(4.12)"/><path d="M229.66 567.72h-20.6v-12.36c0-5.768 4.532-10.3 10.3-10.3s10.3 4.532 10.3 10.3zm85.7-2.06c-5.768 0-10.3-4.532-10.3-10.3V543h20.6v12.36c0 5.768-4.532 10.3-10.3 10.3m24 0c-5.768 0-10.3-4.532-10.3-10.3V543h20.6v12.36c0 5.768-4.532 10.3-10.3 10.3m34.3 2.06h-20.6v-12.36c0-5.768 4.532-10.3 10.3-10.3s10.3 4.532 10.3 10.3zm13.7-2.06c-5.768 0-10.3-4.532-10.3-10.3V543h20.6v12.36c0 5.768-4.532 10.3-10.3 10.3m37.7-22.66h20.6v24.72h-20.6zm82.3 22.66c-5.768 0-10.3-4.532-10.3-10.3V543h20.6v12.36c0 5.768-4.532 10.3-10.3 10.3m37.7-22.66h20.6v24.72h-20.6zm44.6 24.72h-20.6v-12.36c0-5.768 4.532-10.3 10.3-10.3s10.3 4.532 10.3 10.3zm27.4-24.72h20.6v24.72h-20.6zm140.6 24.72h-20.6v-12.36c0-5.768 4.532-10.3 10.3-10.3s10.3 4.532 10.3 10.3z"/><circle cx="3" cy="3" r="2.5" transform="translate(759 543)scale(4.12)"/><path d="M99.36 589.66c-5.768 0-10.3-4.532-10.3-10.3V567h20.6v12.36c0 5.768-4.532 10.3-10.3 10.3m120 0c-5.768 0-10.3-4.532-10.3-10.3V567h20.6v12.36c0 5.768-4.532 10.3-10.3 10.3"/><circle cx="3" cy="3" r="2.5" transform="translate(231 567)scale(4.12)"/><path d="M363.36 589.66c-5.768 0-10.3-4.532-10.3-10.3V567h20.6v12.36c0 5.768-4.532 10.3-10.3 10.3m61.7-22.66h20.6v24.72h-20.6zm44.6 24.72h-20.6v-12.36c0-5.768 4.532-10.3 10.3-10.3s10.3 4.532 10.3 10.3zm85.7-2.06c-5.768 0-10.3-4.532-10.3-10.3V567h20.6v12.36c0 5.768-4.532 10.3-10.3 10.3m13.7-22.66h20.6v24.72h-20.6z"/><circle cx="3" cy="3" r="2.5" transform="translate(591 567)scale(4.12)"/><path d="M627.36 589.66c-5.768 0-10.3-4.532-10.3-10.3V567h20.6v12.36c0 5.768-4.532 10.3-10.3 10.3"/><circle cx="3" cy="3" r="2.5" transform="translate(639 567)scale(4.12)"/><path d="M685.66 591.72h-20.6v-12.36c0-5.768 4.532-10.3 10.3-10.3s10.3 4.532 10.3 10.3z"/><circle cx="3" cy="3" r="2.5" transform="translate(711 567)scale(4.12)"/><path d="M747.36 589.66c-5.768 0-10.3-4.532-10.3-10.3V567h20.6v12.36c0 5.768-4.532 10.3-10.3 10.3"/><circle cx="3" cy="3" r="2.5" transform="translate(279 591)scale(4.12)"/><circle cx="3" cy="3" r="2.5" transform="translate(327 591)scale(4.12)"/><path d="M397.66 615.72h-20.6v-12.36c0-5.768 4.532-10.3 10.3-10.3s10.3 4.532 10.3 10.3zm24 0h-20.6v-12.36c0-5.768 4.532-10.3 10.3-10.3s10.3 4.532 10.3 10.3zm3.4-24.72h20.6v24.72h-20.6zm24 0h20.6v24.72h-20.6zm44.6 24.72h-20.6v-12.36c0-5.768 4.532-10.3 10.3-10.3s10.3 4.532 10.3 10.3zm24 0h-20.6v-12.36c0-5.768 4.532-10.3 10.3-10.3s10.3 4.532 10.3 10.3zm24 0h-20.6v-12.36c0-5.768 4.532-10.3 10.3-10.3s10.3 4.532 10.3 10.3zm27.4-24.72h20.6v24.72h-20.6zm96 0h20.6v24.72h-20.6z"/><circle cx="3" cy="3" r="2.5" transform="translate(687 591)scale(4.12)"/><circle cx="3" cy="3" r="2.5" transform="translate(759 591)scale(4.12)"/><path d="M377.06 615h20.6v24.72h-20.6zm24 0h20.6v24.72h-20.6zm34.3 22.66c-5.768 0-10.3-4.532-10.3-10.3V615h20.6v12.36c0 5.768-4.532 10.3-10.3 10.3m13.7-22.66h20.6v24.72h-20.6zm34.3 22.66c-5.768 0-10.3-4.532-10.3-10.3V615h20.6v12.36c0 5.768-4.532 10.3-10.3 10.3m13.7-22.66h20.6v24.72h-20.6zm24 0h20.6v24.72h-20.6zm44.6 24.72h-20.6v-12.36c0-5.768 4.532-10.3 10.3-10.3s10.3 4.532 10.3 10.3zm3.4-24.72h20.6v24.72h-20.6z"/><circle cx="3" cy="3" r="2.5" transform="translate(615 615)scale(4.12)"/><path d="M665.06 615h20.6v24.72h-20.6zm-288 24h20.6v24.72h-20.6zm24 0h20.6v24.72h-20.6zm48 0h20.6v24.72h-20.6zm58.3 22.66c-5.768 0-10.3-4.532-10.3-10.3V639h20.6v12.36c0 5.768-4.532 10.3-10.3 10.3m13.7-22.66h20.6v24.72h-20.6zm34.3 22.66c-5.768 0-10.3-4.532-10.3-10.3V639h20.6v12.36c0 5.768-4.532 10.3-10.3 10.3m13.7-22.66h20.6v24.72h-20.6z"/><path d="M665.06 639h20.6v24.72h-20.6zm44.6 24.72h-20.6v-12.36c0-5.768 4.532-10.3 10.3-10.3s10.3 4.532 10.3 10.3zm48 0h-20.6v-12.36c0-5.768 4.532-10.3 10.3-10.3s10.3 4.532 10.3 10.3z"/><circle cx="3" cy="3" r="2.5" transform="translate(759 639)scale(4.12)"/><path d="M301.66 687.72h-20.6v-12.36c0-5.768 4.532-10.3 10.3-10.3s10.3 4.532 10.3 10.3z"/><circle cx="3" cy="3" r="2.5" transform="translate(327 663)scale(4.12)"/><path d="M373.66 687.72h-20.6v-12.36c0-5.768 4.532-10.3 10.3-10.3s10.3 4.532 10.3 10.3zm13.7-2.06c-5.768 0-10.3-4.532-10.3-10.3V663h20.6v12.36c0 5.768-4.532 10.3-10.3 10.3m24 0c-5.768 0-10.3-4.532-10.3-10.3V663h20.6v12.36c0 5.768-4.532 10.3-10.3 10.3m37.7-22.66h20.6v24.72h-20.6zm82.3 22.66c-5.768 0-10.3-4.532-10.3-10.3V663h20.6v12.36c0 5.768-4.532 10.3-10.3 10.3m37.7-22.66h20.6v24.72h-20.6zm44.6 24.72h-20.6v-12.36c0-5.768 4.532-10.3 10.3-10.3s10.3 4.532 10.3 10.3z"/><circle cx="3" cy="3" r="2.5" transform="translate(615 663)scale(4.12)"/><path d="M661.66 687.72h-20.6v-12.36c0-5.768 4.532-10.3 10.3-10.3s10.3 4.532 10.3 10.3zm13.7-2.06c-5.768 0-10.3-4.532-10.3-10.3V663h20.6v12.36c0 5.768-4.532 10.3-10.3 10.3m13.7-22.66h20.6v24.72h-20.6zm44.6 24.72h-20.6v-12.36c0-5.768 4.532-10.3 10.3-10.3s10.3 4.532 10.3 10.3zm13.7-2.06c-5.768 0-10.3-4.532-10.3-10.3V663h20.6v12.36c0 5.768-4.532 10.3-10.3 10.3M281.06 687h20.6v24.72h-20.6zm72 0h20.6v24.72h-20.6z"/><circle cx="3" cy="3" r="2.5" transform="translate(423 687)scale(4.12)"/><path d="M459.36 709.66c-5.768 0-10.3-4.532-10.3-10.3V687h20.6v12.36c0 5.768-4.532 10.3-10.3 10.3"/><circle cx="3" cy="3" r="2.5" transform="translate(471 687)scale(4.12)"/><circle cx="3" cy="3" r="2.5" transform="translate(495 687)scale(4.12)"/><path d="M565.66 711.72h-20.6v-12.36c0-5.768 4.532-10.3 10.3-10.3s10.3 4.532 10.3 10.3zm3.4-24.72h20.6v24.72h-20.6zm24 0h20.6v24.72h-20.6zm48 0h20.6v24.72h-20.6zm58.3 22.66c-5.768 0-10.3-4.532-10.3-10.3V687h20.6v12.36c0 5.768-4.532 10.3-10.3 10.3m13.7-22.66h20.6v24.72h-20.6zm-421.7 46.66c-5.768 0-10.3-4.532-10.3-10.3V711h20.6v12.36c0 5.768-4.532 10.3-10.3 10.3"/><circle cx="3" cy="3" r="2.5" transform="translate(303 711)scale(4.12)"/><path d="M363.36 733.66c-5.768 0-10.3-4.532-10.3-10.3V711h20.6v12.36c0 5.768-4.532 10.3-10.3 10.3"/><circle cx="3" cy="3" r="2.5" transform="translate(519 711)scale(4.12)"/><path d="M545.06 711h20.6v24.72h-20.6zm34.3 22.66c-5.768 0-10.3-4.532-10.3-10.3V711h20.6v12.36c0 5.768-4.532 10.3-10.3 10.3m13.7-22.66h20.6v24.72h-20.6z"/><circle cx="3" cy="3" r="2.5" transform="translate(615 711)scale(4.12)"/><path d="M651.36 733.66c-5.768 0-10.3-4.532-10.3-10.3V711h20.6v12.36c0 5.768-4.532 10.3-10.3 10.3m34.3 2.06h-20.6v-12.36c0-5.768 4.532-10.3 10.3-10.3s10.3 4.532 10.3 10.3zm37.7-2.06c-5.768 0-10.3-4.532-10.3-10.3V711h20.6v12.36c0 5.768-4.532 10.3-10.3 10.3m34.3 2.06h-20.6v-12.36c0-5.768 4.532-10.3 10.3-10.3s10.3 4.532 10.3 10.3z"/><circle cx="3" cy="3" r="2.5" transform="translate(447 735)scale(4.12)"/><path d="M493.66 759.72h-20.6v-12.36c0-5.768 4.532-10.3 10.3-10.3s10.3 4.532 10.3 10.3z"/><circle cx="3" cy="3" r="2.5" transform="translate(495 735)scale(4.12)"/><path d="M555.36 757.66c-5.768 0-10.3-4.532-10.3-10.3V735h20.6v12.36c0 5.768-4.532 10.3-10.3 10.3m48 0c-5.768 0-10.3-4.532-10.3-10.3V735h20.6v12.36c0 5.768-4.532 10.3-10.3 10.3m61.7-22.66h20.6v24.72h-20.6z"/><circle cx="3" cy="3" r="2.5" transform="translate(687 735)scale(4.12)"/><path d="M747.36 757.66c-5.768 0-10.3-4.532-10.3-10.3V735h20.6v12.36c0 5.768-4.532 10.3-10.3 10.3"/><circle cx="3" cy="3" r="2.5" transform="translate(327 759)scale(4.12)"/><circle cx="3" cy="3" r="2.5" transform="translate(423 759)scale(4.12)"/><path d="M483.36 781.66c-5.768 0-10.3-4.532-10.3-10.3V759h20.6v12.36c0 5.768-4.532 10.3-10.3 10.3m192 0c-5.768 0-10.3-4.532-10.3-10.3V759h20.6v12.36c0 5.768-4.532 10.3-10.3 10.3"/><circle cx="3" cy="3" r="2.5" transform="translate(711 759)scale(4.12)"/><path d="M112.2 143.75v86.05h117.6V112.207l-85.436.027c-17.74 0-32.164 14.138-32.164 31.516" fill="none"/><path d="M87 255h168V87l-110.643.034C112.737 87.034 87 112.469 87 143.75v54.55zm25.2-25.2v-86.05c0-17.378 14.424-31.516 32.164-31.516l85.436-.027V229.8z"/><path d="M726.25 112.2H640.2v117.6h117.593l-.027-85.436c0-17.74-14.138-32.164-31.516-32.164" fill="none"/><path d="M615 87v168h168l-.034-110.643c0-31.62-25.435-57.357-56.716-57.357H671.7zm25.2 25.2h86.05c17.378 0 31.516 14.424 31.516 32.164l.027 85.436H640.2zM87 783h168V615H87zm144-144v120H111V639zm-95.638-468 35.637-35.638 35.64 35.637L171 206.64z"/><path d="m663.362 171 35.637-35.638 35.64 35.637L699 206.64zM135 663h72v72h-72z"/></g></svg>