<svg xmlns="http://www.w3.org/2000/svg" xml:space="preserve" width="744" height="744" viewBox="0 0 744 744"><g fill="#eaeaea"><path d="M238.66 48.72h-20.6V36.36c0-5.768 4.532-10.3 10.3-10.3s10.3 4.532 10.3 10.3z"/><circle cx="3" cy="3" r="2.5" transform="translate(240 24)scale(4.12)"/><circle cx="3" cy="3" r="2.5" transform="translate(360 24)scale(4.12)"/><path d="M430.66 48.72h-20.6V36.36c0-5.768 4.532-10.3 10.3-10.3s10.3 4.532 10.3 10.3zm24 0h-20.6V36.36c0-5.768 4.532-10.3 10.3-10.3s10.3 4.532 10.3 10.3z"/><circle cx="3" cy="3" r="2.5" transform="translate(456 24)scale(4.12)"/><circle cx="3" cy="3" r="2.5" transform="translate(504 24)scale(4.12)"/><path d="M218.06 48h20.6v24.72h-20.6zm68.6 24.72h-20.6V60.36c0-5.768 4.532-10.3 10.3-10.3s10.3 4.532 10.3 10.3zm24 0h-20.6V60.36c0-5.768 4.532-10.3 10.3-10.3s10.3 4.532 10.3 10.3z"/><circle cx="3" cy="3" r="2.5" transform="translate(312 48)scale(4.12)"/><path d="M406.66 72.72h-20.6V60.36c0-5.768 4.532-10.3 10.3-10.3s10.3 4.532 10.3 10.3zm3.4-24.72h20.6v24.72h-20.6zm34.3 22.66c-5.768 0-10.3-4.532-10.3-10.3V48h20.6v12.36c0 5.768-4.532 10.3-10.3 10.3m58.3 2.06h-20.6V60.36c0-5.768 4.532-10.3 10.3-10.3s10.3 4.532 10.3 10.3zm-274.3 21.94c-5.768 0-10.3-4.532-10.3-10.3V72h20.6v12.36c0 5.768-4.532 10.3-10.3 10.3m48 0c-5.768 0-10.3-4.532-10.3-10.3V72h20.6v12.36c0 5.768-4.532 10.3-10.3 10.3M290.06 72h20.6v24.72h-20.6z"/><circle cx="3" cy="3" r="2.5" transform="translate(336 72)scale(4.12)"/><circle cx="3" cy="3" r="2.5" transform="translate(360 72)scale(4.12)"/><path d="M396.36 94.66c-5.768 0-10.3-4.532-10.3-10.3V72h20.6v12.36c0 5.768-4.532 10.3-10.3 10.3m24 0c-5.768 0-10.3-4.532-10.3-10.3V72h20.6v12.36c0 5.768-4.532 10.3-10.3 10.3"/><circle cx="3" cy="3" r="2.5" transform="translate(456 72)scale(4.12)"/><path d="M482.06 72h20.6v24.72h-20.6z"/><circle cx="3" cy="3" r="2.5" transform="translate(504 72)scale(4.12)"/><circle cx="3" cy="3" r="2.5" transform="translate(240 96)scale(4.12)"/><path d="M300.36 118.66c-5.768 0-10.3-4.532-10.3-10.3V96h20.6v12.36c0 5.768-4.532 10.3-10.3 10.3m34.3 2.06h-20.6v-12.36c0-5.768 4.532-10.3 10.3-10.3s10.3 4.532 10.3 10.3z"/><circle cx="3" cy="3" r="2.5" transform="translate(432 96)scale(4.12)"/><path d="M482.06 96h20.6v24.72h-20.6z"/><circle cx="3" cy="3" r="2.5" transform="translate(264 120)scale(4.12)"/><path d="M324.36 142.66c-5.768 0-10.3-4.532-10.3-10.3V120h20.6v12.36c0 5.768-4.532 10.3-10.3 10.3m82.3 2.06h-20.6v-12.36c0-5.768 4.532-10.3 10.3-10.3s10.3 4.532 10.3 10.3z"/><circle cx="3" cy="3" r="2.5" transform="translate(408 120)scale(4.12)"/><path d="M492.36 142.66c-5.768 0-10.3-4.532-10.3-10.3V120h20.6v12.36c0 5.768-4.532 10.3-10.3 10.3m-253.7 26.06h-20.6v-12.36c0-5.768 4.532-10.3 10.3-10.3s10.3 4.532 10.3 10.3z"/><circle cx="3" cy="3" r="2.5" transform="translate(240 144)scale(4.12)"/><circle cx="3" cy="3" r="2.5" transform="translate(288 144)scale(4.12)"/><circle cx="3" cy="3" r="2.5" transform="translate(336 144)scale(4.12)"/><path d="M396.36 166.66c-5.768 0-10.3-4.532-10.3-10.3V144h20.6v12.36c0 5.768-4.532 10.3-10.3 10.3m82.3 2.06h-20.6v-12.36c0-5.768 4.532-10.3 10.3-10.3s10.3 4.532 10.3 10.3zm-260.6-.72h20.6v24.72h-20.6z"/><circle cx="3" cy="3" r="2.5" transform="translate(264 168)scale(4.12)"/><path d="M334.66 192.72h-20.6v-12.36c0-5.768 4.532-10.3 10.3-10.3s10.3 4.532 10.3 10.3z"/><circle cx="3" cy="3" r="2.5" transform="translate(360 168)scale(4.12)"/><path d="M430.66 192.72h-20.6v-12.36c0-5.768 4.532-10.3 10.3-10.3s10.3 4.532 10.3 10.3zm37.7-2.06c-5.768 0-10.3-4.532-10.3-10.3V168h20.6v12.36c0 5.768-4.532 10.3-10.3 10.3m58.3 2.06h-20.6v-12.36c0-5.768 4.532-10.3 10.3-10.3s10.3 4.532 10.3 10.3zm-308.6-.72h20.6v24.72h-20.6zm44.6 24.72h-20.6v-12.36c0-5.768 4.532-10.3 10.3-10.3s10.3 4.532 10.3 10.3zm51.4-24.72h20.6v24.72h-20.6z"/><path d="M410.06 192h20.6v24.72h-20.6zm96 0h20.6v24.72h-20.6zm-411.4 48.72h-20.6v-12.36c0-5.768 4.532-10.3 10.3-10.3s10.3 4.532 10.3 10.3z"/><circle cx="3" cy="3" r="2.5" transform="translate(96 216)scale(4.12)"/><path d="M142.66 240.72h-20.6v-12.36c0-5.768 4.532-10.3 10.3-10.3s10.3 4.532 10.3 10.3z"/><circle cx="3" cy="3" r="2.5" transform="translate(168 216)scale(4.12)"/><path d="M228.36 238.66c-5.768 0-10.3-4.532-10.3-10.3V216h20.6v12.36c0 5.768-4.532 10.3-10.3 10.3m13.7-22.66h20.6v24.72h-20.6z"/><circle cx="3" cy="3" r="2.5" transform="translate(288 216)scale(4.12)"/><path d="M324.36 238.66c-5.768 0-10.3-4.532-10.3-10.3V216h20.6v12.36c0 5.768-4.532 10.3-10.3 10.3m34.3 2.06h-20.6v-12.36c0-5.768 4.532-10.3 10.3-10.3s10.3 4.532 10.3 10.3z"/><circle cx="3" cy="3" r="2.5" transform="translate(360 216)scale(4.12)"/><path d="M410.06 216h20.6v24.72h-20.6z"/><circle cx="3" cy="3" r="2.5" transform="translate(456 216)scale(4.12)"/><circle cx="3" cy="3" r="2.5" transform="translate(480 216)scale(4.12)"/><path d="M516.36 238.66c-5.768 0-10.3-4.532-10.3-10.3V216h20.6v12.36c0 5.768-4.532 10.3-10.3 10.3m34.3 2.06h-20.6v-12.36c0-5.768 4.532-10.3 10.3-10.3s10.3 4.532 10.3 10.3z"/><circle cx="3" cy="3" r="2.5" transform="translate(552 216)scale(4.12)"/><circle cx="3" cy="3" r="2.5" transform="translate(576 216)scale(4.12)"/><path d="M670.66 240.72h-20.6v-12.36c0-5.768 4.532-10.3 10.3-10.3s10.3 4.532 10.3 10.3z"/><circle cx="3" cy="3" r="2.5" transform="translate(672 216)scale(4.12)"/><path d="M718.66 240.72h-20.6v-12.36c0-5.768 4.532-10.3 10.3-10.3s10.3 4.532 10.3 10.3zm-648 24h-20.6v-12.36c0-5.768 4.532-10.3 10.3-10.3s10.3 4.532 10.3 10.3zm3.4-24.72h20.6v24.72h-20.6zm58.3 22.66c-5.768 0-10.3-4.532-10.3-10.3V240h20.6v12.36c0 5.768-4.532 10.3-10.3 10.3"/><circle cx="3" cy="3" r="2.5" transform="translate(192 240)scale(4.12)"/><path d="M252.36 262.66c-5.768 0-10.3-4.532-10.3-10.3V240h20.6v12.36c0 5.768-4.532 10.3-10.3 10.3"/><circle cx="3" cy="3" r="2.5" transform="translate(264 240)scale(4.12)"/><path d="M338.06 240h20.6v24.72h-20.6zm72 0h20.6v24.72h-20.6zm120 0h20.6v24.72h-20.6z"/><circle cx="3" cy="3" r="2.5" transform="translate(600 240)scale(4.12)"/><circle cx="3" cy="3" r="2.5" transform="translate(624 240)scale(4.12)"/><path d="M660.36 262.66c-5.768 0-10.3-4.532-10.3-10.3V240h20.6v12.36c0 5.768-4.532 10.3-10.3 10.3m48 0c-5.768 0-10.3-4.532-10.3-10.3V240h20.6v12.36c0 5.768-4.532 10.3-10.3 10.3"/><circle cx="3" cy="3" r="2.5" transform="translate(24 264)scale(4.12)"/><path d="M60.36 286.66c-5.768 0-10.3-4.532-10.3-10.3V264h20.6v12.36c0 5.768-4.532 10.3-10.3 10.3m24 0c-5.768 0-10.3-4.532-10.3-10.3V264h20.6v12.36c0 5.768-4.532 10.3-10.3 10.3m34.3 2.06h-20.6v-12.36c0-5.768 4.532-10.3 10.3-10.3s10.3 4.532 10.3 10.3z"/><circle cx="3" cy="3" r="2.5" transform="translate(144 264)scale(4.12)"/><circle cx="3" cy="3" r="2.5" transform="translate(168 264)scale(4.12)"/><circle cx="3" cy="3" r="2.5" transform="translate(216 264)scale(4.12)"/><path d="M310.66 288.72h-20.6v-12.36c0-5.768 4.532-10.3 10.3-10.3s10.3 4.532 10.3 10.3zm24 0h-20.6v-12.36c0-5.768 4.532-10.3 10.3-10.3s10.3 4.532 10.3 10.3zm3.4-24.72h20.6v24.72h-20.6z"/><circle cx="3" cy="3" r="2.5" transform="translate(360 264)scale(4.12)"/><path d="M410.06 264h20.6v24.72h-20.6zm68.6 24.72h-20.6v-12.36c0-5.768 4.532-10.3 10.3-10.3s10.3 4.532 10.3 10.3z"/><circle cx="3" cy="3" r="2.5" transform="translate(504 264)scale(4.12)"/><path d="M530.06 264h20.6v24.72h-20.6zm44.6 24.72h-20.6v-12.36c0-5.768 4.532-10.3 10.3-10.3s10.3 4.532 10.3 10.3zM98.06 288h20.6v24.72h-20.6zm116.6 24.72h-20.6v-12.36c0-5.768 4.532-10.3 10.3-10.3s10.3 4.532 10.3 10.3zm48 0h-20.6v-12.36c0-5.768 4.532-10.3 10.3-10.3s10.3 4.532 10.3 10.3z"/><circle cx="3" cy="3" r="2.5" transform="translate(264 288)scale(4.12)"/><path d="M300.36 310.66c-5.768 0-10.3-4.532-10.3-10.3V288h20.6v12.36c0 5.768-4.532 10.3-10.3 10.3m13.7-22.66h20.6v24.72h-20.6zm34.3 22.66c-5.768 0-10.3-4.532-10.3-10.3V288h20.6v12.36c0 5.768-4.532 10.3-10.3 10.3m72 0c-5.768 0-10.3-4.532-10.3-10.3V288h20.6v12.36c0 5.768-4.532 10.3-10.3 10.3m34.3 2.06h-20.6v-12.36c0-5.768 4.532-10.3 10.3-10.3s10.3 4.532 10.3 10.3zm13.7-2.06c-5.768 0-10.3-4.532-10.3-10.3V288h20.6v12.36c0 5.768-4.532 10.3-10.3 10.3m61.7-22.66h20.6v24.72h-20.6zm34.3 22.66c-5.768 0-10.3-4.532-10.3-10.3V288h20.6v12.36c0 5.768-4.532 10.3-10.3 10.3"/><circle cx="3" cy="3" r="2.5" transform="translate(600 288)scale(4.12)"/><path d="M646.66 312.72h-20.6v-12.36c0-5.768 4.532-10.3 10.3-10.3s10.3 4.532 10.3 10.3zm48 0h-20.6v-12.36c0-5.768 4.532-10.3 10.3-10.3s10.3 4.532 10.3 10.3zm-624 24h-20.6v-12.36c0-5.768 4.532-10.3 10.3-10.3s10.3 4.532 10.3 10.3zm37.7-2.06c-5.768 0-10.3-4.532-10.3-10.3V312h20.6v12.36c0 5.768-4.532 10.3-10.3 10.3"/><circle cx="3" cy="3" r="2.5" transform="translate(120 312)scale(4.12)"/><circle cx="3" cy="3" r="2.5" transform="translate(144 312)scale(4.12)"/><circle cx="3" cy="3" r="2.5" transform="translate(168 312)scale(4.12)"/><path d="M204.36 334.66c-5.768 0-10.3-4.532-10.3-10.3V312h20.6v12.36c0 5.768-4.532 10.3-10.3 10.3m48 0c-5.768 0-10.3-4.532-10.3-10.3V312h20.6v12.36c0 5.768-4.532 10.3-10.3 10.3m72 0c-5.768 0-10.3-4.532-10.3-10.3V312h20.6v12.36c0 5.768-4.532 10.3-10.3 10.3m58.3 2.06h-20.6v-12.36c0-5.768 4.532-10.3 10.3-10.3s10.3 4.532 10.3 10.3z"/><circle cx="3" cy="3" r="2.5" transform="translate(384 312)scale(4.12)"/><path d="M444.36 334.66c-5.768 0-10.3-4.532-10.3-10.3V312h20.6v12.36c0 5.768-4.532 10.3-10.3 10.3m85.7-22.66h20.6v24.72h-20.6z"/><circle cx="3" cy="3" r="2.5" transform="translate(576 312)scale(4.12)"/><path d="M626.06 312h20.6v24.72h-20.6z"/><circle cx="3" cy="3" r="2.5" transform="translate(648 312)scale(4.12)"/><path d="M674.06 312h20.6v24.72h-20.6zm44.6 24.72h-20.6v-12.36c0-5.768 4.532-10.3 10.3-10.3s10.3 4.532 10.3 10.3zm-658.3 21.94c-5.768 0-10.3-4.532-10.3-10.3V336h20.6v12.36c0 5.768-4.532 10.3-10.3 10.3"/><circle cx="3" cy="3" r="2.5" transform="translate(72 336)scale(4.12)"/><path d="M286.66 360.72h-20.6v-12.36c0-5.768 4.532-10.3 10.3-10.3s10.3 4.532 10.3 10.3zm24 0h-20.6v-12.36c0-5.768 4.532-10.3 10.3-10.3s10.3 4.532 10.3 10.3zm51.4-24.72h20.6v24.72h-20.6z"/><circle cx="3" cy="3" r="2.5" transform="translate(480 336)scale(4.12)"/><circle cx="3" cy="3" r="2.5" transform="translate(504 336)scale(4.12)"/><path d="M540.36 358.66c-5.768 0-10.3-4.532-10.3-10.3V336h20.6v12.36c0 5.768-4.532 10.3-10.3 10.3m34.3 2.06h-20.6v-12.36c0-5.768 4.532-10.3 10.3-10.3s10.3 4.532 10.3 10.3z"/><circle cx="3" cy="3" r="2.5" transform="translate(600 336)scale(4.12)"/><path d="M636.36 358.66c-5.768 0-10.3-4.532-10.3-10.3V336h20.6v12.36c0 5.768-4.532 10.3-10.3 10.3m48 0c-5.768 0-10.3-4.532-10.3-10.3V336h20.6v12.36c0 5.768-4.532 10.3-10.3 10.3m24 0c-5.768 0-10.3-4.532-10.3-10.3V336h20.6v12.36c0 5.768-4.532 10.3-10.3 10.3m-661.7 26.06h-20.6v-12.36c0-5.768 4.532-10.3 10.3-10.3s10.3 4.532 10.3 10.3zm96 0h-20.6v-12.36c0-5.768 4.532-10.3 10.3-10.3s10.3 4.532 10.3 10.3z"/><circle cx="3" cy="3" r="2.5" transform="translate(168 360)scale(4.12)"/><path d="M214.66 384.72h-20.6v-12.36c0-5.768 4.532-10.3 10.3-10.3s10.3 4.532 10.3 10.3z"/><circle cx="3" cy="3" r="2.5" transform="translate(216 360)scale(4.12)"/><path d="M266.06 360h20.6v24.72h-20.6zm24 0h20.6v24.72h-20.6zm72 0h20.6v24.72h-20.6zm44.6 24.72h-20.6v-12.36c0-5.768 4.532-10.3 10.3-10.3s10.3 4.532 10.3 10.3zm48 0h-20.6v-12.36c0-5.768 4.532-10.3 10.3-10.3s10.3 4.532 10.3 10.3zm24 0h-20.6v-12.36c0-5.768 4.532-10.3 10.3-10.3s10.3 4.532 10.3 10.3zm75.4-24.72h20.6v24.72h-20.6z"/><circle cx="3" cy="3" r="2.5" transform="translate(576 360)scale(4.12)"/><path d="M26.06 384h20.6v24.72h-20.6zm92.6 24.72h-20.6v-12.36c0-5.768 4.532-10.3 10.3-10.3s10.3 4.532 10.3 10.3zm3.4-24.72h20.6v24.72h-20.6zm44.6 24.72h-20.6v-12.36c0-5.768 4.532-10.3 10.3-10.3s10.3 4.532 10.3 10.3zm27.4-24.72h20.6v24.72h-20.6zm72 0h20.6v24.72h-20.6zm34.3 22.66c-5.768 0-10.3-4.532-10.3-10.3V384h20.6v12.36c0 5.768-4.532 10.3-10.3 10.3m34.3 2.06h-20.6v-12.36c0-5.768 4.532-10.3 10.3-10.3s10.3 4.532 10.3 10.3z"/><circle cx="3" cy="3" r="2.5" transform="translate(336 384)scale(4.12)"/><path d="M372.36 406.66c-5.768 0-10.3-4.532-10.3-10.3V384h20.6v12.36c0 5.768-4.532 10.3-10.3 10.3m13.7-22.66h20.6v24.72h-20.6zm58.3 22.66c-5.768 0-10.3-4.532-10.3-10.3V384h20.6v12.36c0 5.768-4.532 10.3-10.3 10.3m13.7-22.66h20.6v24.72h-20.6z"/><circle cx="3" cy="3" r="2.5" transform="translate(504 384)scale(4.12)"/><circle cx="3" cy="3" r="2.5" transform="translate(528 384)scale(4.12)"/><path d="M554.06 384h20.6v24.72h-20.6z"/><circle cx="3" cy="3" r="2.5" transform="translate(600 384)scale(4.12)"/><path d="M646.66 408.72h-20.6v-12.36c0-5.768 4.532-10.3 10.3-10.3s10.3 4.532 10.3 10.3zM26.06 408h20.6v24.72h-20.6z"/><circle cx="3" cy="3" r="2.5" transform="translate(48 408)scale(4.12)"/><path d="M98.06 408h20.6v24.72h-20.6zm24 0h20.6v24.72h-20.6zm34.3 22.66c-5.768 0-10.3-4.532-10.3-10.3V408h20.6v12.36c0 5.768-4.532 10.3-10.3 10.3"/><circle cx="3" cy="3" r="2.5" transform="translate(168 408)scale(4.12)"/><path d="M194.06 408h20.6v24.72h-20.6zm44.6 24.72h-20.6v-12.36c0-5.768 4.532-10.3 10.3-10.3s10.3 4.532 10.3 10.3zm24 0h-20.6v-12.36c0-5.768 4.532-10.3 10.3-10.3s10.3 4.532 10.3 10.3zm13.7-2.06c-5.768 0-10.3-4.532-10.3-10.3V408h20.6v12.36c0 5.768-4.532 10.3-10.3 10.3m48 0c-5.768 0-10.3-4.532-10.3-10.3V408h20.6v12.36c0 5.768-4.532 10.3-10.3 10.3m61.7-22.66h20.6v24.72h-20.6zm82.3 22.66c-5.768 0-10.3-4.532-10.3-10.3V408h20.6v12.36c0 5.768-4.532 10.3-10.3 10.3m96 0c-5.768 0-10.3-4.532-10.3-10.3V408h20.6v12.36c0 5.768-4.532 10.3-10.3 10.3m34.3 2.06h-20.6v-12.36c0-5.768 4.532-10.3 10.3-10.3s10.3 4.532 10.3 10.3zm37.7-2.06c-5.768 0-10.3-4.532-10.3-10.3V408h20.6v12.36c0 5.768-4.532 10.3-10.3 10.3"/><circle cx="3" cy="3" r="2.5" transform="translate(648 408)scale(4.12)"/><path d="M694.66 432.72h-20.6v-12.36c0-5.768 4.532-10.3 10.3-10.3s10.3 4.532 10.3 10.3zm24 0h-20.6v-12.36c0-5.768 4.532-10.3 10.3-10.3s10.3 4.532 10.3 10.3zM26.06 432h20.6v24.72h-20.6z"/><circle cx="3" cy="3" r="2.5" transform="translate(72 432)scale(4.12)"/><path d="M98.06 432h20.6v24.72h-20.6zm34.3 22.66c-5.768 0-10.3-4.532-10.3-10.3V432h20.6v12.36c0 5.768-4.532 10.3-10.3 10.3m72 0c-5.768 0-10.3-4.532-10.3-10.3V432h20.6v12.36c0 5.768-4.532 10.3-10.3 10.3m24 0c-5.768 0-10.3-4.532-10.3-10.3V432h20.6v12.36c0 5.768-4.532 10.3-10.3 10.3m13.7-22.66h20.6v24.72h-20.6z"/><circle cx="3" cy="3" r="2.5" transform="translate(288 432)scale(4.12)"/><path d="M386.06 432h20.6v24.72h-20.6z"/><circle cx="3" cy="3" r="2.5" transform="translate(504 432)scale(4.12)"/><circle cx="3" cy="3" r="2.5" transform="translate(528 432)scale(4.12)"/><path d="M578.06 432h20.6v24.72h-20.6zm44.6 24.72h-20.6v-12.36c0-5.768 4.532-10.3 10.3-10.3s10.3 4.532 10.3 10.3zm61.7-2.06c-5.768 0-10.3-4.532-10.3-10.3V432h20.6v12.36c0 5.768-4.532 10.3-10.3 10.3m24 0c-5.768 0-10.3-4.532-10.3-10.3V432h20.6v12.36c0 5.768-4.532 10.3-10.3 10.3M26.06 456h20.6v24.72h-20.6zm82.3 22.66c-5.768 0-10.3-4.532-10.3-10.3V456h20.6v12.36c0 5.768-4.532 10.3-10.3 10.3"/><circle cx="3" cy="3" r="2.5" transform="translate(168 456)scale(4.12)"/><path d="M242.06 456h20.6v24.72h-20.6zm44.6 24.72h-20.6v-12.36c0-5.768 4.532-10.3 10.3-10.3s10.3 4.532 10.3 10.3zm48 0h-20.6v-12.36c0-5.768 4.532-10.3 10.3-10.3s10.3 4.532 10.3 10.3z"/><circle cx="3" cy="3" r="2.5" transform="translate(336 456)scale(4.12)"/><path d="M382.66 480.72h-20.6v-12.36c0-5.768 4.532-10.3 10.3-10.3s10.3 4.532 10.3 10.3zm13.7-2.06c-5.768 0-10.3-4.532-10.3-10.3V456h20.6v12.36c0 5.768-4.532 10.3-10.3 10.3"/><circle cx="3" cy="3" r="2.5" transform="translate(408 456)scale(4.12)"/><path d="M454.66 480.72h-20.6v-12.36c0-5.768 4.532-10.3 10.3-10.3s10.3 4.532 10.3 10.3zm48 0h-20.6v-12.36c0-5.768 4.532-10.3 10.3-10.3s10.3 4.532 10.3 10.3zm72 0h-20.6v-12.36c0-5.768 4.532-10.3 10.3-10.3s10.3 4.532 10.3 10.3zm13.7-2.06c-5.768 0-10.3-4.532-10.3-10.3V456h20.6v12.36c0 5.768-4.532 10.3-10.3 10.3m24 0c-5.768 0-10.3-4.532-10.3-10.3V456h20.6v12.36c0 5.768-4.532 10.3-10.3 10.3"/><circle cx="3" cy="3" r="2.5" transform="translate(624 456)scale(4.12)"/><circle cx="3" cy="3" r="2.5" transform="translate(648 456)scale(4.12)"/><path d="M26.06 480h20.6v24.72h-20.6z"/><circle cx="3" cy="3" r="2.5" transform="translate(120 480)scale(4.12)"/><path d="M166.66 504.72h-20.6v-12.36c0-5.768 4.532-10.3 10.3-10.3s10.3 4.532 10.3 10.3zm85.7-2.06c-5.768 0-10.3-4.532-10.3-10.3V480h20.6v12.36c0 5.768-4.532 10.3-10.3 10.3m24 0c-5.768 0-10.3-4.532-10.3-10.3V480h20.6v12.36c0 5.768-4.532 10.3-10.3 10.3m34.3 2.06h-20.6v-12.36c0-5.768 4.532-10.3 10.3-10.3s10.3 4.532 10.3 10.3zm13.7-2.06c-5.768 0-10.3-4.532-10.3-10.3V480h20.6v12.36c0 5.768-4.532 10.3-10.3 10.3m37.7-22.66h20.6v24.72h-20.6zm82.3 22.66c-5.768 0-10.3-4.532-10.3-10.3V480h20.6v12.36c0 5.768-4.532 10.3-10.3 10.3m37.7-22.66h20.6v24.72h-20.6zm44.6 24.72h-20.6v-12.36c0-5.768 4.532-10.3 10.3-10.3s10.3 4.532 10.3 10.3zm27.4-24.72h20.6v24.72h-20.6zm140.6 24.72h-20.6v-12.36c0-5.768 4.532-10.3 10.3-10.3s10.3 4.532 10.3 10.3z"/><circle cx="3" cy="3" r="2.5" transform="translate(696 480)scale(4.12)"/><path d="M36.36 526.66c-5.768 0-10.3-4.532-10.3-10.3V504h20.6v12.36c0 5.768-4.532 10.3-10.3 10.3m120 0c-5.768 0-10.3-4.532-10.3-10.3V504h20.6v12.36c0 5.768-4.532 10.3-10.3 10.3"/><circle cx="3" cy="3" r="2.5" transform="translate(168 504)scale(4.12)"/><path d="M300.36 526.66c-5.768 0-10.3-4.532-10.3-10.3V504h20.6v12.36c0 5.768-4.532 10.3-10.3 10.3m61.7-22.66h20.6v24.72h-20.6zm44.6 24.72h-20.6v-12.36c0-5.768 4.532-10.3 10.3-10.3s10.3 4.532 10.3 10.3zm85.7-2.06c-5.768 0-10.3-4.532-10.3-10.3V504h20.6v12.36c0 5.768-4.532 10.3-10.3 10.3m13.7-22.66h20.6v24.72h-20.6z"/><circle cx="3" cy="3" r="2.5" transform="translate(528 504)scale(4.12)"/><path d="M564.36 526.66c-5.768 0-10.3-4.532-10.3-10.3V504h20.6v12.36c0 5.768-4.532 10.3-10.3 10.3"/><circle cx="3" cy="3" r="2.5" transform="translate(576 504)scale(4.12)"/><path d="M622.66 528.72h-20.6v-12.36c0-5.768 4.532-10.3 10.3-10.3s10.3 4.532 10.3 10.3z"/><circle cx="3" cy="3" r="2.5" transform="translate(648 504)scale(4.12)"/><path d="M684.36 526.66c-5.768 0-10.3-4.532-10.3-10.3V504h20.6v12.36c0 5.768-4.532 10.3-10.3 10.3"/><circle cx="3" cy="3" r="2.5" transform="translate(216 528)scale(4.12)"/><circle cx="3" cy="3" r="2.5" transform="translate(264 528)scale(4.12)"/><path d="M334.66 552.72h-20.6v-12.36c0-5.768 4.532-10.3 10.3-10.3s10.3 4.532 10.3 10.3zm24 0h-20.6v-12.36c0-5.768 4.532-10.3 10.3-10.3s10.3 4.532 10.3 10.3zm3.4-24.72h20.6v24.72h-20.6zm24 0h20.6v24.72h-20.6zm44.6 24.72h-20.6v-12.36c0-5.768 4.532-10.3 10.3-10.3s10.3 4.532 10.3 10.3zm24 0h-20.6v-12.36c0-5.768 4.532-10.3 10.3-10.3s10.3 4.532 10.3 10.3zm24 0h-20.6v-12.36c0-5.768 4.532-10.3 10.3-10.3s10.3 4.532 10.3 10.3zm27.4-24.72h20.6v24.72h-20.6zm96 0h20.6v24.72h-20.6z"/><circle cx="3" cy="3" r="2.5" transform="translate(624 528)scale(4.12)"/><circle cx="3" cy="3" r="2.5" transform="translate(696 528)scale(4.12)"/><path d="M314.06 552h20.6v24.72h-20.6zm24 0h20.6v24.72h-20.6zm34.3 22.66c-5.768 0-10.3-4.532-10.3-10.3V552h20.6v12.36c0 5.768-4.532 10.3-10.3 10.3m13.7-22.66h20.6v24.72h-20.6zm34.3 22.66c-5.768 0-10.3-4.532-10.3-10.3V552h20.6v12.36c0 5.768-4.532 10.3-10.3 10.3m13.7-22.66h20.6v24.72h-20.6zm24 0h20.6v24.72h-20.6zm44.6 24.72h-20.6v-12.36c0-5.768 4.532-10.3 10.3-10.3s10.3 4.532 10.3 10.3zm3.4-24.72h20.6v24.72h-20.6z"/><circle cx="3" cy="3" r="2.5" transform="translate(552 552)scale(4.12)"/><path d="M602.06 552h20.6v24.72h-20.6zm-288 24h20.6v24.72h-20.6zm24 0h20.6v24.72h-20.6zm48 0h20.6v24.72h-20.6zm58.3 22.66c-5.768 0-10.3-4.532-10.3-10.3V576h20.6v12.36c0 5.768-4.532 10.3-10.3 10.3m13.7-22.66h20.6v24.72h-20.6zm34.3 22.66c-5.768 0-10.3-4.532-10.3-10.3V576h20.6v12.36c0 5.768-4.532 10.3-10.3 10.3m13.7-22.66h20.6v24.72h-20.6z"/><path d="M602.06 576h20.6v24.72h-20.6zm44.6 24.72h-20.6v-12.36c0-5.768 4.532-10.3 10.3-10.3s10.3 4.532 10.3 10.3zm48 0h-20.6v-12.36c0-5.768 4.532-10.3 10.3-10.3s10.3 4.532 10.3 10.3z"/><circle cx="3" cy="3" r="2.5" transform="translate(696 576)scale(4.12)"/><path d="M238.66 624.72h-20.6v-12.36c0-5.768 4.532-10.3 10.3-10.3s10.3 4.532 10.3 10.3z"/><circle cx="3" cy="3" r="2.5" transform="translate(264 600)scale(4.12)"/><path d="M310.66 624.72h-20.6v-12.36c0-5.768 4.532-10.3 10.3-10.3s10.3 4.532 10.3 10.3zm13.7-2.06c-5.768 0-10.3-4.532-10.3-10.3V600h20.6v12.36c0 5.768-4.532 10.3-10.3 10.3m24 0c-5.768 0-10.3-4.532-10.3-10.3V600h20.6v12.36c0 5.768-4.532 10.3-10.3 10.3m37.7-22.66h20.6v24.72h-20.6zm82.3 22.66c-5.768 0-10.3-4.532-10.3-10.3V600h20.6v12.36c0 5.768-4.532 10.3-10.3 10.3m37.7-22.66h20.6v24.72h-20.6zm44.6 24.72h-20.6v-12.36c0-5.768 4.532-10.3 10.3-10.3s10.3 4.532 10.3 10.3z"/><circle cx="3" cy="3" r="2.5" transform="translate(552 600)scale(4.12)"/><path d="M598.66 624.72h-20.6v-12.36c0-5.768 4.532-10.3 10.3-10.3s10.3 4.532 10.3 10.3zm13.7-2.06c-5.768 0-10.3-4.532-10.3-10.3V600h20.6v12.36c0 5.768-4.532 10.3-10.3 10.3m13.7-22.66h20.6v24.72h-20.6zm44.6 24.72h-20.6v-12.36c0-5.768 4.532-10.3 10.3-10.3s10.3 4.532 10.3 10.3zm13.7-2.06c-5.768 0-10.3-4.532-10.3-10.3V600h20.6v12.36c0 5.768-4.532 10.3-10.3 10.3M218.06 624h20.6v24.72h-20.6zm72 0h20.6v24.72h-20.6z"/><circle cx="3" cy="3" r="2.5" transform="translate(360 624)scale(4.12)"/><path d="M396.36 646.66c-5.768 0-10.3-4.532-10.3-10.3V624h20.6v12.36c0 5.768-4.532 10.3-10.3 10.3"/><circle cx="3" cy="3" r="2.5" transform="translate(408 624)scale(4.12)"/><circle cx="3" cy="3" r="2.5" transform="translate(432 624)scale(4.12)"/><path d="M502.66 648.72h-20.6v-12.36c0-5.768 4.532-10.3 10.3-10.3s10.3 4.532 10.3 10.3zm3.4-24.72h20.6v24.72h-20.6zm24 0h20.6v24.72h-20.6zm48 0h20.6v24.72h-20.6zm58.3 22.66c-5.768 0-10.3-4.532-10.3-10.3V624h20.6v12.36c0 5.768-4.532 10.3-10.3 10.3m13.7-22.66h20.6v24.72h-20.6zm-421.7 46.66c-5.768 0-10.3-4.532-10.3-10.3V648h20.6v12.36c0 5.768-4.532 10.3-10.3 10.3"/><circle cx="3" cy="3" r="2.5" transform="translate(240 648)scale(4.12)"/><path d="M300.36 670.66c-5.768 0-10.3-4.532-10.3-10.3V648h20.6v12.36c0 5.768-4.532 10.3-10.3 10.3"/><circle cx="3" cy="3" r="2.5" transform="translate(456 648)scale(4.12)"/><path d="M482.06 648h20.6v24.72h-20.6zm34.3 22.66c-5.768 0-10.3-4.532-10.3-10.3V648h20.6v12.36c0 5.768-4.532 10.3-10.3 10.3m13.7-22.66h20.6v24.72h-20.6z"/><circle cx="3" cy="3" r="2.5" transform="translate(552 648)scale(4.12)"/><path d="M588.36 670.66c-5.768 0-10.3-4.532-10.3-10.3V648h20.6v12.36c0 5.768-4.532 10.3-10.3 10.3m34.3 2.06h-20.6v-12.36c0-5.768 4.532-10.3 10.3-10.3s10.3 4.532 10.3 10.3zm37.7-2.06c-5.768 0-10.3-4.532-10.3-10.3V648h20.6v12.36c0 5.768-4.532 10.3-10.3 10.3m34.3 2.06h-20.6v-12.36c0-5.768 4.532-10.3 10.3-10.3s10.3 4.532 10.3 10.3z"/><circle cx="3" cy="3" r="2.5" transform="translate(384 672)scale(4.12)"/><path d="M430.66 696.72h-20.6v-12.36c0-5.768 4.532-10.3 10.3-10.3s10.3 4.532 10.3 10.3z"/><circle cx="3" cy="3" r="2.5" transform="translate(432 672)scale(4.12)"/><path d="M492.36 694.66c-5.768 0-10.3-4.532-10.3-10.3V672h20.6v12.36c0 5.768-4.532 10.3-10.3 10.3m48 0c-5.768 0-10.3-4.532-10.3-10.3V672h20.6v12.36c0 5.768-4.532 10.3-10.3 10.3m61.7-22.66h20.6v24.72h-20.6z"/><circle cx="3" cy="3" r="2.5" transform="translate(624 672)scale(4.12)"/><path d="M684.36 694.66c-5.768 0-10.3-4.532-10.3-10.3V672h20.6v12.36c0 5.768-4.532 10.3-10.3 10.3"/><circle cx="3" cy="3" r="2.5" transform="translate(264 696)scale(4.12)"/><circle cx="3" cy="3" r="2.5" transform="translate(360 696)scale(4.12)"/><path d="M420.36 718.66c-5.768 0-10.3-4.532-10.3-10.3V696h20.6v12.36c0 5.768-4.532 10.3-10.3 10.3m192 0c-5.768 0-10.3-4.532-10.3-10.3V696h20.6v12.36c0 5.768-4.532 10.3-10.3 10.3"/><circle cx="3" cy="3" r="2.5" transform="translate(648 696)scale(4.12)"/><path d="M49.2 80.75v86.05h117.6V49.207l-85.436.027c-17.74 0-32.164 14.138-32.164 31.516" fill="none"/><path d="M24 192h168V24l-110.643.034C49.737 24.034 24 49.469 24 80.75v54.55zm25.2-25.2V80.75c0-17.378 14.424-31.516 32.164-31.516l85.436-.027V166.8z"/><path d="M663.25 49.2H577.2v117.6h117.593l-.027-85.436c0-17.74-14.138-32.164-31.516-32.164" fill="none"/><path d="M552 24v168h168l-.034-110.643c0-31.62-25.435-57.357-56.716-57.357H608.7zm25.2 25.2h86.05c17.378 0 31.516 14.424 31.516 32.164l.027 85.436H577.2zM24 720h168V552H24zm144-144v120H48V576zM72.362 108l35.637-35.638 35.64 35.637L108 143.64z"/><path d="m600.362 108 35.637-35.638 35.64 35.637L636 143.64zM72 600h72v72H72z"/></g></svg>